<svg width="281" height="100" viewBox="0 0 281 100" fill="none" xmlns="http://www.w3.org/2000/svg">
<path d="M123.6 55.25H115.475L113.925 59H109.775L117.575 41.5H121.575L129.4 59H125.15L123.6 55.25ZM122.325 52.175L119.55 45.475L116.775 52.175H122.325ZM139.291 41.5C140.841 41.5 142.182 41.7583 143.316 42.275C144.466 42.7917 145.349 43.525 145.966 44.475C146.582 45.425 146.891 46.55 146.891 47.85C146.891 49.1333 146.582 50.2583 145.966 51.225C145.349 52.175 144.466 52.9083 143.316 53.425C142.182 53.925 140.841 54.175 139.291 54.175H135.766V59H131.716V41.5H139.291ZM139.066 50.875C140.282 50.875 141.207 50.6167 141.841 50.1C142.474 49.5667 142.791 48.8167 142.791 47.85C142.791 46.8667 142.474 46.1167 141.841 45.6C141.207 45.0667 140.282 44.8 139.066 44.8H135.766V50.875H139.066ZM163.832 55.75V59H150.282V41.5H163.507V44.75H154.307V48.55H162.432V51.7H154.307V55.75H163.832ZM178.409 59L174.184 52.925L170.034 59H165.384L171.859 50.1L165.709 41.5H170.309L174.334 47.175L178.284 41.5H182.659L176.559 49.95L183.084 59H178.409ZM196.935 44.8H191.335V41.5H206.585V44.8H200.985V59H196.935V44.8ZM219.911 55.25H211.786L210.236 59H206.086L213.886 41.5H217.886L225.711 59H221.461L219.911 55.25ZM218.636 52.175L215.861 45.475L213.086 52.175H218.636ZM228.348 40.25C229.048 40.25 229.623 40.475 230.073 40.925C230.523 41.3583 230.748 41.9333 230.748 42.65C230.748 42.9833 230.706 43.3167 230.623 43.65C230.54 43.9833 230.365 44.4833 230.098 45.15L228.648 48.75H226.173L227.248 44.8C226.831 44.6167 226.506 44.3417 226.273 43.975C226.04 43.6083 225.923 43.1667 225.923 42.65C225.923 41.9333 226.148 41.3583 226.598 40.925C227.065 40.475 227.648 40.25 228.348 40.25ZM234.166 41.5H238.216V55.7H246.991V59H234.166V41.5ZM249.754 41.5H253.804V59H249.754V41.5ZM274.382 59L274.357 48.5L269.207 57.15H267.382L262.257 48.725V59H258.457V41.5H261.807L268.357 52.375L274.807 41.5H278.132L278.182 59H274.382Z" fill="white"/>
<path d="M46.6089 0.0130768C45.062 0.14724 43.5309 0.320862 42.426 0.486588C20.6829 3.81695 3.64351 20.9501 0.44715 42.7001C0.107783 45.0045 0.0288608 46.0462 0.00518406 48.7373C-0.00270819 50.1894 -0.00270819 51.2232 0.0130763 51.0259C0.0288608 50.8286 0.0841066 50.2052 0.13146 49.6449C0.431366 46.0541 1.15745 42.5422 2.3334 39.0303C4.20386 33.4114 6.95826 28.4947 10.8255 23.8385C11.9225 22.5206 15.0084 19.427 16.3816 18.2748C21.5826 13.9027 27.6675 10.6986 34.0602 8.96243C45.3225 5.90828 57.3187 7.16309 67.5944 12.4822C73.6399 15.6152 78.975 20.0899 83.15 25.5274C91.4921 36.3945 94.5622 50.4498 91.5395 63.9291C89.9374 71.1028 86.5674 77.8661 81.7294 83.6192C80.5772 84.9924 77.4834 88.0781 76.1654 89.1751C71.509 93.0421 66.5921 95.7964 60.9728 97.6667C57.4608 98.8426 53.9487 99.5687 50.3577 99.8685C49.7974 99.9159 49.1739 99.9711 48.9766 99.9869C48.7793 100.003 49.8132 100.003 51.2653 99.9948C53.9566 99.9711 54.9984 99.8922 57.3029 99.5529C69.4886 97.7614 80.5377 91.5663 88.4694 82.0724C94.3334 75.0566 98.1295 66.636 99.5186 57.5762C99.9447 54.7667 100 53.938 100 50C100 46.062 99.9447 45.2333 99.5186 42.4238C96.188 20.6818 79.054 3.64333 57.3029 0.447128C54.7774 0.07621 54.0355 0.028862 50.4367 0.00518799C48.5267 -0.00270844 46.8062 -0.00270844 46.6089 0.0130768Z" fill="white"/>
<path d="M42.8992 7.55093C27.9355 8.5453 14.5581 17.4079 7.77866 30.8319C4.01405 38.2897 2.53031 46.5682 3.48527 54.8547C5.06372 68.6812 13.3585 80.8978 25.6546 87.5033C37.8323 94.0377 52.5751 94.2192 64.9185 87.9847C74.334 83.2259 81.6896 75.0894 85.47 65.2483C87.3167 60.4263 88.3033 55.1388 88.2717 50.1748L88.2638 48.699L88.1533 49.9617C87.443 58.3034 84.3966 65.7533 79.0615 72.1773C78.067 73.3769 75.944 75.5234 74.6655 76.6362C68.3201 82.1289 60.6015 85.3804 52.1726 86.1143C50.3258 86.2721 46.3086 86.2327 44.6355 86.0354C39.7975 85.4672 35.7409 84.2834 31.4949 82.2C19.7354 76.4468 11.559 65.0667 9.83853 52.0925C9.5702 50.0485 9.49127 48.486 9.53863 46.0632C9.59387 43.1116 9.83853 41.0282 10.4305 38.2818C11.4722 33.5151 13.7373 28.3617 16.5785 24.3211C17.3441 23.2399 17.6124 22.8848 17.5019 23.1294C17.3441 23.453 16.9968 24.5736 16.8074 25.3392C16.0339 28.5038 15.8051 32.6312 16.2628 35.0856C16.468 36.151 17.1546 38.8816 17.5729 40.2784C19.5697 46.9155 22.9712 52.3766 27.6671 56.5041C28.8983 57.5853 29.3403 57.9325 33.4127 61.0024C37.1615 63.8198 38.6058 64.9484 39.7817 65.9743C44.7381 70.2833 47.0821 73.9845 48.1002 79.0827L48.3211 80.1875L48.5263 79.5167C49.3392 76.8887 49.7812 72.7613 49.6076 69.4783C49.5602 68.6181 49.4734 67.4816 49.4103 66.9529C48.5579 60.016 45.622 53.5052 40.7288 47.752C40.2868 47.2312 39.0399 45.8817 37.9665 44.7531C32.876 39.4182 29.506 35.6301 27.746 33.2705C27.3672 32.7575 27.0357 32.2919 27.0121 32.2287C26.9253 32.0315 26.4833 32.6549 26.3018 33.231C25.7256 35.054 26.5385 38.4475 28.2906 41.5253C28.7326 42.3066 29.2535 43.0722 30.6504 45.0057C31.045 45.5502 31.1397 45.7396 31.1239 45.929C31.1003 46.1658 31.0845 46.1736 30.6899 46.1973C29.0719 46.292 25.6072 43.2616 23.208 39.6629C22.0005 37.8399 20.7614 35.4486 20.1774 33.7913C19.5776 32.0946 19.3803 30.0822 19.5302 27.3121C19.7038 24.2422 19.7275 23.09 19.6249 22.5928C19.5144 22.0798 19.2382 21.701 18.9067 21.6142L18.6779 21.5511L19.5697 20.5646C24.8101 14.7641 31.4712 10.6998 38.9136 8.76627C41.226 8.16649 43.278 7.81924 45.8588 7.59039L47.0426 7.48779H45.4641C44.596 7.48779 43.4437 7.51936 42.8992 7.55093Z" fill="white"/>
<path d="M46.7034 20.0108C44.4146 20.6106 42.7493 22.7966 42.7415 25.2036C42.7415 25.4325 42.7967 25.8902 42.8677 26.2217C43.3807 28.7234 45.5669 30.507 48.1082 30.507C50.5232 30.507 52.662 28.8418 53.2776 26.4821C53.4591 25.7955 53.467 24.5486 53.2855 23.8778C52.7883 21.9601 51.2335 20.4133 49.3709 19.9793C48.6527 19.8056 47.4215 19.8214 46.7034 20.0108Z" fill="white"/>
<path d="M77.3092 21.8032C76.812 22.261 76.7488 23.0501 76.9619 26.2937C77.2224 30.2712 76.9856 32.4099 76.0307 34.6512C74.7995 37.5396 73.2368 40.0807 71.3427 42.2668C69.1013 44.8474 66.5442 46.5599 65.5182 46.1654C65.4471 46.1338 65.3919 46.0233 65.3919 45.897C65.3919 45.6761 65.5892 45.3762 66.8125 43.7347C68.3673 41.6354 69.4959 39.331 70.1115 36.9792C70.364 36.0086 70.3877 35.8113 70.3956 34.7695C70.4035 33.5068 70.2772 32.9939 69.8352 32.4178L69.6221 32.1337L69.4643 32.3625C67.5149 35.0852 64.358 38.6839 58.7229 44.5949C56.0317 47.4123 55.0294 48.596 53.6009 50.5769C52.2513 52.463 50.8859 54.8385 49.9704 56.8825C49.0707 58.887 49.1102 58.5161 49.6705 60.1971C50.7991 63.5748 51.4226 67.1971 51.4226 70.3775C51.4226 71.0641 51.4463 71.6244 51.4857 71.6166C51.5173 71.6166 51.833 71.2141 52.1881 70.7327C53.3799 69.1227 55.0215 67.4418 57.2629 65.5556C58.5256 64.4823 60.1593 63.2196 64.0107 60.3233C67.878 57.4112 68.5093 56.8983 70.0404 55.4067C74.0734 51.4687 76.8672 46.8362 78.7614 40.9252C79.2902 39.2994 80.1741 35.7955 80.3556 34.6117C80.5213 33.5858 80.545 30.6737 80.3951 29.2847C80.0162 25.7018 79.1402 22.6792 78.2405 21.8664C77.8774 21.5349 77.6249 21.5191 77.3092 21.8032Z" fill="white"/>
<path d="M67.1292 26.7819C66.3558 27.9894 64.2012 29.4415 61.6915 30.4674C59.7973 31.2329 57.9663 31.738 55.1725 32.251C52.1339 32.8034 50.0899 33.3795 48.7324 34.0661L48.1089 34.3739L47.3749 34.0266C45.9227 33.3243 43.9891 32.7797 41.2032 32.2825C37.6359 31.6433 35.2682 30.9173 32.8926 29.7256C31.1879 28.8733 29.7042 27.729 29.0333 26.7583L28.7571 26.3637L28.7965 26.9161C28.9623 29.0153 30.5249 31.8801 32.8216 34.2634C34.3527 35.8575 35.7181 36.9624 38.2041 38.6118C39.972 39.7877 40.5955 40.2849 41.6372 41.366C44.2338 44.0572 46.2148 47.8689 47.3591 52.3673C47.659 53.551 48.03 55.4767 48.03 55.8555C48.03 56.3132 48.1089 56.0291 48.3062 54.8295C49.1744 49.684 51.3368 44.8858 54.1938 41.7449C55.3461 40.4743 56.1353 39.835 58.3294 38.3829C62.1571 35.8418 64.7379 33.2296 66.2532 30.349C66.9398 29.0311 67.516 27.1844 67.4291 26.5452C67.4055 26.3716 67.3739 26.3952 67.1292 26.7819Z" fill="white"/>
</svg>
