<svg width="24" height="25" viewBox="0 0 24 25" fill="none" xmlns="http://www.w3.org/2000/svg">
<path d="M12 0C5.38315 0 0 4.41914 0 9.85106C0 12.0924 0.894753 14.2033 2.58757 15.9555C4.77944 18.2242 11.1535 23.6109 11.4237 23.8391L11.9999 24.3257L12.5762 23.8391C12.8466 23.6108 19.2226 18.2229 21.4148 15.9535C23.1061 14.2027 24 12.0926 24 9.85106C24 4.41914 18.6168 0 12 0ZM20.1552 15.1335C18.3904 16.9604 13.6511 21.0244 12 22.43C10.3491 21.0244 5.61142 16.9617 3.84707 15.1354C2.38196 13.6189 1.60753 11.7916 1.60753 9.85106C1.60753 5.14681 6.26954 1.31966 12 1.31966C17.7304 1.31966 22.3925 5.14681 22.3924 9.85106C22.3924 11.7918 21.6188 13.6184 20.1552 15.1335Z" fill="#00445B"/>
<path d="M11.9997 3.90918C8.08294 3.90918 4.89648 6.52506 4.89648 9.74048C4.89648 12.9559 8.08302 15.5718 11.9997 15.5718C15.9164 15.5718 19.1029 12.9558 19.1029 9.74048C19.1029 6.52513 15.9165 3.90918 11.9997 3.90918ZM11.9997 14.2521C8.96933 14.2521 6.50402 12.2282 6.50402 9.74048C6.50402 7.25274 8.96941 5.22887 11.9997 5.22887C15.03 5.22887 17.4953 7.2528 17.4954 9.74048C17.4954 12.2282 15.0301 14.2521 11.9997 14.2521Z" fill="#00445B"/>
</svg>
