<svg width="100" height="100" viewBox="0 0 100 100" fill="none" xmlns="http://www.w3.org/2000/svg">
<path d="M46.6089 0.0130768C45.062 0.14724 43.5309 0.320862 42.426 0.486588C20.6829 3.81695 3.64351 20.9501 0.44715 42.7001C0.107783 45.0045 0.0288608 46.0462 0.00518406 48.7373C-0.00270819 50.1894 -0.00270819 51.2232 0.0130763 51.0259C0.0288608 50.8286 0.0841066 50.2052 0.13146 49.6449C0.431366 46.0541 1.15745 42.5422 2.3334 39.0303C4.20386 33.4114 6.95826 28.4947 10.8255 23.8385C11.9225 22.5206 15.0084 19.427 16.3816 18.2748C21.5826 13.9027 27.6675 10.6986 34.0602 8.96243C45.3225 5.90828 57.3187 7.16309 67.5944 12.4822C73.6399 15.6152 78.975 20.0899 83.15 25.5274C91.4921 36.3945 94.5622 50.4498 91.5395 63.9291C89.9374 71.1028 86.5674 77.8661 81.7294 83.6192C80.5772 84.9924 77.4834 88.0781 76.1654 89.1751C71.509 93.0421 66.5921 95.7964 60.9728 97.6667C57.4608 98.8426 53.9487 99.5687 50.3577 99.8685C49.7974 99.9159 49.1739 99.9711 48.9766 99.9869C48.7793 100.003 49.8132 100.003 51.2653 99.9948C53.9566 99.9711 54.9984 99.8922 57.3029 99.5529C69.4886 97.7614 80.5377 91.5663 88.4694 82.0724C94.3334 75.0566 98.1295 66.636 99.5186 57.5762C99.9447 54.7667 100 53.938 100 50C100 46.062 99.9447 45.2333 99.5186 42.4238C96.188 20.6818 79.054 3.64333 57.3029 0.447128C54.7774 0.07621 54.0355 0.028862 50.4367 0.00518799C48.5267 -0.00270844 46.8062 -0.00270844 46.6089 0.0130768Z" fill="white"/>
<path d="M42.8994 7.54994C27.9357 8.5443 14.5583 17.4067 7.7789 30.8305C4.0143 38.2882 2.53055 46.5666 3.48552 54.8529C5.06397 68.6792 13.3587 80.8956 25.6549 87.501C37.8326 94.0353 52.5753 94.2168 64.9188 87.9824C74.3343 83.2237 81.6898 75.0873 85.4702 65.2463C87.317 60.4245 88.3035 55.137 88.272 50.1731L88.2641 48.6974L88.1536 49.9601C87.4433 58.3016 84.3969 65.7514 79.0617 72.1753C78.0673 73.3748 75.9443 75.5213 74.6657 76.6341C68.3204 82.1267 60.6017 85.3781 52.1728 86.112C50.326 86.2699 46.3089 86.2304 44.6357 86.0331C39.7978 85.4649 35.7411 84.2812 31.4951 82.1977C19.7357 76.4447 11.5593 65.0648 9.83878 52.0908C9.57044 50.0469 9.49152 48.4843 9.53887 46.0615C9.59412 43.11 9.83878 41.0266 10.4307 38.2803C11.4725 33.5137 13.7375 28.3604 16.5788 24.3198C17.3443 23.2387 17.6126 22.8836 17.5022 23.1282C17.3443 23.4518 16.997 24.5724 16.8076 25.3379C16.0342 28.5025 15.8053 32.6298 16.2631 35.0842C16.4683 36.1495 17.1549 38.8801 17.5732 40.2769C19.5699 46.9139 22.9715 52.3749 27.6674 56.5023C28.8986 57.5835 29.3405 57.9307 33.4129 61.0006C37.1618 63.8179 38.606 64.9464 39.782 65.9724C44.7383 70.2812 47.0823 73.9825 48.1004 79.0805L48.3214 80.1854L48.5266 79.5146C49.3395 76.8866 49.7815 72.7592 49.6078 69.4763C49.5605 68.6161 49.4737 67.4797 49.4105 66.9509C48.5582 60.0141 45.6222 53.5034 40.729 47.7504C40.2871 47.2295 39.0401 45.88 37.9668 44.7515C32.8763 39.4167 29.5063 35.6287 27.7463 33.2691C27.3675 32.7561 27.036 32.2905 27.0123 32.2274C26.9255 32.0301 26.4835 32.6535 26.302 33.2296C25.7259 35.0526 26.5388 38.446 28.2909 41.5238C28.7328 42.3051 29.2537 43.0706 30.6506 45.0041C31.0453 45.5486 31.14 45.738 31.1242 45.9274C31.1005 46.1641 31.0847 46.172 30.6901 46.1957C29.0722 46.2904 25.6075 43.26 23.2083 39.6614C22.0007 37.8384 20.7617 35.4472 20.1776 33.7899C19.5778 32.0932 19.3805 30.0808 19.5305 27.3108C19.7041 24.2409 19.7278 23.0887 19.6252 22.5916C19.5147 22.0786 19.2384 21.6998 18.907 21.613L18.6781 21.5499L19.5699 20.5634C24.8104 14.763 31.4714 10.6987 38.9138 8.76527C41.2263 8.16549 43.2782 7.81826 45.859 7.58939L47.0429 7.4868H45.4644C44.5963 7.4868 43.444 7.51837 42.8994 7.54994Z" fill="white"/>
<path d="M46.7031 20.0115C44.4144 20.6113 42.7491 22.7974 42.7412 25.2044C42.7412 25.4333 42.7965 25.891 42.8675 26.2225C43.3805 28.7242 45.5666 30.5078 48.1079 30.5078C50.523 30.5078 52.6617 28.8426 53.2773 26.4829C53.4589 25.7963 53.4668 24.5494 53.2852 23.8786C52.788 21.9608 51.2333 20.414 49.3707 19.9799C48.6525 19.8063 47.4213 19.8221 46.7031 20.0115Z" fill="white"/>
<path d="M77.3094 21.8039C76.8122 22.2616 76.7491 23.0508 76.9622 26.2942C77.2226 30.2716 76.9859 32.4102 76.0309 34.6514C74.7997 37.5397 73.237 40.0808 71.3429 42.2668C69.1015 44.8473 66.5444 46.5598 65.5184 46.1652C65.4474 46.1337 65.3921 46.0232 65.3921 45.8969C65.3921 45.676 65.5894 45.3761 66.8127 43.7346C68.3675 41.6355 69.4961 39.3311 70.1117 36.9794C70.3643 36.0088 70.3879 35.8115 70.3958 34.7698C70.4037 33.5071 70.2774 32.9942 69.8355 32.4181L69.6224 32.134L69.4645 32.3628C67.5152 35.0854 64.3583 38.684 58.7232 44.5948C56.0319 47.4121 55.0296 48.5959 53.6011 50.5766C52.2515 52.4627 50.8862 54.8381 49.9707 56.882C49.071 58.8865 49.1104 58.5156 49.6708 60.1965C50.7994 63.5741 51.4228 67.1963 51.4228 70.3767C51.4228 71.0632 51.4465 71.6235 51.486 71.6156C51.5176 71.6156 51.8332 71.2132 52.1884 70.7318C53.3801 69.1219 55.0217 67.441 57.2631 65.5549C58.5259 64.4816 60.1596 63.219 64.011 60.3228C67.8782 57.4108 68.5096 56.8978 70.0407 55.4063C74.0736 51.4684 76.8675 46.836 78.7616 40.9252C79.2904 39.2996 80.1743 35.7957 80.3559 34.6119C80.5216 33.586 80.5453 30.674 80.3953 29.2851C80.0165 25.7023 79.1404 22.6799 78.2407 21.867C77.8777 21.5356 77.6251 21.5198 77.3094 21.8039Z" fill="white"/>
<path d="M67.1285 26.7826C66.355 27.99 64.2005 29.4421 61.6907 30.468C59.7966 31.2335 57.9656 31.7386 55.1717 32.2515C52.1332 32.804 50.0891 33.3801 48.7316 34.0666L48.1082 34.3744L47.3742 34.0272C45.922 33.3248 43.9884 32.7803 41.2024 32.2831C37.6351 31.6439 35.2675 30.9179 32.8919 29.7262C31.1872 28.8739 29.7034 27.7296 29.0326 26.7589L28.7563 26.3644L28.7958 26.9168C28.9615 29.016 30.5242 31.8806 32.8209 34.2639C34.352 35.858 35.7173 36.9629 38.2034 38.6122C39.9712 39.7881 40.5947 40.2853 41.6365 41.3664C44.2331 44.0575 46.214 47.8692 47.3584 52.3674C47.6583 53.5512 48.0292 55.4767 48.0292 55.8555C48.0292 56.3132 48.1082 56.0291 48.3055 54.8296C49.1736 49.6842 51.3361 44.8861 54.1931 41.7452C55.3454 40.4747 56.1346 39.8354 58.3286 38.3834C62.1564 35.8423 64.7371 33.2301 66.2524 30.3497C66.9391 29.0317 67.5152 27.1851 67.4284 26.5459C67.4047 26.3722 67.3731 26.3959 67.1285 26.7826Z" fill="white"/>
</svg>
