<svg width="24" height="24" viewBox="0 0 24 24" fill="none" xmlns="http://www.w3.org/2000/svg">
<g clip-path="url(#clip0)">
<path d="M18.5752 17.8165L15.5729 15.9867C15.4464 15.9043 15.2959 15.8575 15.1368 15.8512C14.9777 15.8448 14.8157 15.8791 14.6676 15.9505L13.4521 16.5754C13.2997 16.6516 13.1312 16.6858 12.9673 16.6739C12.8033 16.662 12.651 16.6044 12.529 16.5083C10.3896 14.8647 9.01806 12.489 8.66434 9.81443C8.64206 9.66075 8.66837 9.50008 8.74004 9.35212C8.8117 9.20416 8.9256 9.07534 9.06778 8.98146L10.1852 8.18667C10.3233 8.09688 10.4369 7.97584 10.5143 7.83603C10.5917 7.69623 10.6302 7.54273 10.6256 7.39137L10.5421 3.87638L10.5277 2.97572C10.5235 2.8462 10.4884 2.72195 10.4248 2.61224C10.3229 2.43413 10.1508 2.30484 9.94206 2.2497C9.36682 2.09161 8.74724 2.07 8.13481 2.18668C7.52238 2.30337 6.93477 2.55497 6.42081 2.92058L6.16944 3.1069L6.0392 3.20407C5.9787 3.24679 5.92038 3.29237 5.8645 3.34063L5.70271 3.48897C3.56566 5.47799 3.72504 10.2303 6.13905 14.848L6.87929 16.1301C9.66776 20.5233 13.7036 23.0375 16.5052 22.2206L16.7145 22.1546C16.7839 22.1305 16.8521 22.103 16.919 22.0723L17.0689 22.0091L17.3559 21.8845C17.9293 21.622 18.4406 21.2388 18.8476 20.7667C19.2546 20.2946 19.5453 19.7473 19.6958 19.1701C19.7524 18.9618 19.7265 18.7481 19.6232 18.5708C19.56 18.4609 19.47 18.3683 19.3599 18.2999L18.5752 17.8165Z" stroke="#00445B" stroke-width="1.06794" stroke-miterlimit="10"/>
</g>
<defs>
<clipPath id="clip0">
<rect width="24" height="24" fill="white"/>
</clipPath>
</defs>
</svg>
