<svg width="18" height="18" viewBox="0 0 18 18" fill="none" xmlns="http://www.w3.org/2000/svg">
<path d="M9.83563 16.4994H6.86691C6.67007 16.4994 6.4813 16.4204 6.34211 16.2798C6.20292 16.1391 6.12473 15.9484 6.12473 15.7495V11.0997H4.64037C4.44353 11.0997 4.25476 11.0207 4.11557 10.8801C3.97639 10.7394 3.89819 10.5487 3.89819 10.3498V7.6499C3.89819 7.45099 3.97639 7.26024 4.11557 7.11959C4.25476 6.97895 4.44353 6.89993 4.64037 6.89993H6.12473V5.625C6.17675 4.48232 6.6744 3.40694 7.50887 2.63399C8.34334 1.86104 9.44674 1.4534 10.5778 1.50021H12.8043C13.0012 1.50021 13.19 1.57922 13.3291 1.71987C13.4683 1.86051 13.5465 2.05127 13.5465 2.25017V4.95003C13.5465 5.14894 13.4683 5.33969 13.3291 5.48034C13.19 5.62098 13.0012 5.7 12.8043 5.7H10.5778V6.89993H12.8043C12.9189 6.89906 13.0322 6.92501 13.1352 6.97575C13.2382 7.0265 13.3282 7.10066 13.3981 7.19242C13.4672 7.28556 13.5139 7.39369 13.5345 7.50824C13.5552 7.62279 13.5491 7.74061 13.5168 7.85239L12.7747 10.5522C12.7298 10.7145 12.6321 10.8567 12.4975 10.956C12.3629 11.0553 12.1991 11.1059 12.0325 11.0997H10.5778V15.7495C10.5778 15.9484 10.4996 16.1391 10.3604 16.2798C10.2212 16.4204 10.0325 16.4994 9.83563 16.4994ZM7.60909 14.9995H9.09345V10.3498C9.09345 10.2513 9.11264 10.1537 9.14994 10.0628C9.18724 9.97177 9.24191 9.8891 9.31083 9.81946C9.37974 9.74981 9.46156 9.69457 9.55161 9.65688C9.64165 9.61919 9.73816 9.5998 9.83563 9.5998H11.4981L11.8247 8.39986H9.83563C9.73816 8.39986 9.64165 8.38046 9.55161 8.34277C9.46156 8.30508 9.37974 8.24984 9.31083 8.1802C9.24191 8.11056 9.18724 8.02788 9.14994 7.93689C9.11264 7.8459 9.09345 7.74838 9.09345 7.6499V5.625C9.1125 5.24034 9.27727 4.87782 9.5536 4.61255C9.82993 4.34728 10.1967 4.19959 10.5778 4.20007H12.0622V3.00013H10.5778C9.84068 2.95475 9.11558 3.2049 8.55981 3.6963C8.00403 4.18769 7.66242 4.88071 7.60909 5.625V7.6499C7.60909 7.8488 7.5309 8.03955 7.39171 8.1802C7.25252 8.32084 7.06375 8.39986 6.86691 8.39986H5.38255V9.5998H6.86691C7.06375 9.5998 7.25252 9.67881 7.39171 9.81946C7.5309 9.9601 7.60909 10.1509 7.60909 10.3498V14.9995Z" fill="#00445B"/>
</svg>
