<svg width="19" height="18" viewBox="0 0 19 18" fill="none" xmlns="http://www.w3.org/2000/svg">
<path d="M9.84454 5.39409C7.87023 5.39409 6.27686 7.00416 6.27686 8.99918C6.27686 10.9942 7.87023 12.6043 9.84454 12.6043C11.8189 12.6043 13.4122 10.9942 13.4122 8.99918C13.4122 7.00416 11.8189 5.39409 9.84454 5.39409ZM9.84454 11.3422C8.56776 11.3422 7.52581 10.2893 7.52581 8.99918C7.52581 7.70901 8.56776 6.65614 9.84454 6.65614C11.1213 6.65614 12.1633 7.70901 12.1633 8.99918C12.1633 10.2893 11.1213 11.3422 9.84454 11.3422ZM13.5583 4.40625C13.0974 4.40625 12.7251 4.7824 12.7251 5.2482C12.7251 5.714 13.0974 6.09015 13.5583 6.09015C14.0193 6.09015 14.3916 5.71575 14.3916 5.2482C14.3898 4.78065 14.0193 4.40625 13.5583 4.40625Z" fill="#00445B" stroke="#00445B" stroke-width="0.284783"/>
<path d="M16.7997 8.99977C16.7997 8.02951 16.8084 7.06804 16.7545 6.09953C16.7006 4.97459 16.4466 3.9762 15.6325 3.15359C14.8167 2.32922 13.8304 2.07435 12.7172 2.01986C11.757 1.96537 10.8055 1.97416 9.84703 1.97416C8.88683 1.97416 7.93534 1.96537 6.97688 2.01986C5.86361 2.07435 4.87559 2.33097 4.06151 3.15359C3.24569 3.97796 2.99347 4.97459 2.93954 6.09953C2.88562 7.06979 2.89432 8.03127 2.89432 8.99977C2.89432 9.96828 2.88562 10.9315 2.93954 11.9C2.99347 13.025 3.24743 14.0233 4.06151 14.846C4.87733 15.6703 5.86361 15.9252 6.97688 15.9797C7.93707 16.0342 8.88857 16.0254 9.84703 16.0254C10.8072 16.0254 11.7587 16.0342 12.7172 15.9797C13.8304 15.9252 14.8185 15.6686 15.6325 14.846C16.4484 14.0216 16.7006 13.025 16.7545 11.9C16.8102 10.9315 16.7997 9.97004 16.7997 8.99977ZM15.269 13.1445C15.142 13.4644 14.9889 13.7034 14.7437 13.9495C14.4984 14.1974 14.2636 14.352 13.947 14.4804C13.032 14.8477 10.8594 14.7651 9.84529 14.7651C8.83117 14.7651 6.65682 14.8477 5.74185 14.4821C5.42526 14.3538 5.18869 14.1991 4.94517 13.9513C4.6999 13.7034 4.54682 13.4661 4.41984 13.1462C4.05803 12.2199 4.13979 10.0245 4.13979 8.99977C4.13979 7.97502 4.05803 5.77787 4.41984 4.85331C4.54682 4.5334 4.6999 4.29435 4.94517 4.04827C5.19043 3.80219 5.42526 3.64575 5.74185 3.51744C6.65682 3.15183 8.83117 3.23444 9.84529 3.23444C10.8594 3.23444 13.0338 3.15183 13.9487 3.51744C14.2653 3.64575 14.5019 3.80043 14.7454 4.04827C14.9907 4.29611 15.1437 4.5334 15.2707 4.85331C15.6325 5.77787 15.5508 7.97502 15.5508 8.99977C15.5508 10.0245 15.6325 12.2199 15.269 13.1445Z" fill="#00445B" stroke="#00445B" stroke-width="0.284783"/>
</svg>
