<svg width="19" height="18" viewBox="0 0 19 18" fill="none" xmlns="http://www.w3.org/2000/svg">
<path d="M14.9207 1.92993C14.7337 1.93872 14.5576 1.99365 14.401 2.05517H14.3989C14.2401 2.11889 13.4856 2.43967 12.3397 2.92524C11.1939 3.41301 9.7066 4.04579 8.23021 4.67418C5.28179 5.92875 2.38338 7.16355 2.38338 7.16355L2.41817 7.15037C2.41817 7.15037 2.21813 7.21628 2.00939 7.3613C1.90285 7.43161 1.78543 7.52828 1.68324 7.67988C1.58104 7.83149 1.49842 8.06439 1.52886 8.30388C1.57887 8.71035 1.83979 8.95423 2.02678 9.08826C2.21595 9.22448 2.39642 9.2882 2.39642 9.2882H2.40077L5.11871 10.2132C5.24048 10.6087 5.94714 12.9552 6.11674 13.4957C6.21676 13.8187 6.31461 14.0209 6.43637 14.1747C6.49508 14.2538 6.56466 14.3197 6.64728 14.3724C6.6799 14.3922 6.71469 14.4076 6.74948 14.4207C6.76035 14.4273 6.77122 14.4295 6.78427 14.4317L6.756 14.4251C6.7647 14.4273 6.77122 14.4339 6.77774 14.4361C6.79949 14.4427 6.81471 14.4449 6.84298 14.4493C7.2735 14.5811 7.61922 14.3109 7.61922 14.3109L7.63879 14.2955L9.24346 12.819L11.9331 14.9041L11.994 14.9305C12.555 15.1788 13.1225 15.0403 13.4226 14.7965C13.7248 14.5504 13.8422 14.2362 13.8422 14.2362L13.8618 14.1857L15.9405 3.4262C15.9992 3.16034 16.0144 2.91206 15.9492 2.67037C15.8839 2.42869 15.7165 2.20238 15.5143 2.08154C15.3099 1.9585 15.1077 1.92115 14.9207 1.92993ZM14.8642 3.08344C14.862 3.11859 14.8685 3.1142 14.8533 3.18231V3.1889L12.7942 13.8363C12.7855 13.8517 12.7703 13.8846 12.7289 13.9176C12.6855 13.9528 12.6507 13.9747 12.4702 13.9022L9.1804 11.3535L7.19305 13.1838L7.61052 10.49C7.61052 10.49 12.7637 5.63653 12.9855 5.4278C13.2073 5.21907 13.1334 5.17513 13.1334 5.17513C13.1486 4.92026 12.7985 5.10043 12.7985 5.10043L6.02107 9.34313L6.0189 9.33214L2.77041 8.22698V8.22478C2.76824 8.22478 2.76389 8.22258 2.76172 8.22258C2.76389 8.22258 2.77911 8.21599 2.77911 8.21599L2.79651 8.2072L2.8139 8.20061C2.8139 8.20061 5.71449 6.96581 8.66291 5.71123C10.1393 5.08285 11.6266 4.45007 12.7703 3.9623C13.914 3.47673 14.7598 3.12079 14.8076 3.10102C14.8533 3.08344 14.8315 3.08344 14.8642 3.08344Z" fill="#00445B" stroke="#00445B" stroke-width="0.284783"/>
</svg>
